<svg width="16" height="17" viewBox="0 0 16 17" fill="none" xmlns="http://www.w3.org/2000/svg">
  <path d="M9.52883 6.02865L10.4715 6.97131L8.94283 8.49998L10.4715 10.0286L9.52883 10.9713L8.00016 9.44265L6.4715 10.9713L5.52883 10.0286L7.0575 8.49998L5.52883 6.97131L6.4715 6.02865L8.00016 7.55731L9.52883 6.02865Z" fill="#00CCCC"/>
  <path fill-rule="evenodd" clip-rule="evenodd" d="M1.3335 8.49998C1.3335 4.81865 4.31883 1.83331 8.00016 1.83331C11.6815 1.83331 14.6668 4.81865 14.6668 8.49998C14.6668 12.1813 11.6815 15.1666 8.00016 15.1666C4.31883 15.1666 1.3335 12.1813 1.3335 8.49998ZM13.3335 8.49998C13.3335 5.55931 10.9408 3.16665 8.00016 3.16665C5.0595 3.16665 2.66683 5.55931 2.66683 8.49998C2.66683 11.4406 5.0595 13.8333 8.00016 13.8333C10.9408 13.8333 13.3335 11.4406 13.3335 8.49998Z" fill="#00CCCC"/>
</svg>
