<svg width="16" height="16" viewBox="0 0 16 16" fill="none" xmlns="http://www.w3.org/2000/svg">
  <path d="M9.2116 4.85019C8.83694 4.65752 8.40094 4.56085 7.90427 4.56085C7.33627 4.56085 6.8596 4.71552 6.4736 5.02419C6.01627 5.39352 5.7876 5.93952 5.7876 6.66152H7.02827V6.65352C7.02827 6.37752 7.08627 6.15152 7.2016 5.97485C7.3616 5.73819 7.62027 5.61952 7.97894 5.61952C8.1996 5.61952 8.3876 5.67752 8.5416 5.79285C8.73427 5.95285 8.8316 6.19619 8.8316 6.52085C8.8316 6.72552 8.78094 6.90685 8.68227 7.06685C8.5996 7.21019 8.4676 7.35085 8.28494 7.48885C7.89894 7.75285 7.64827 8.01552 7.53227 8.27485C7.43294 8.48952 7.3836 8.83152 7.3836 9.30019H8.55027C8.55027 8.99085 8.59094 8.75952 8.6736 8.60552C8.74027 8.47819 8.87827 8.34352 9.08694 8.19952C9.4516 7.92952 9.71027 7.67885 9.86494 7.44752C10.0523 7.17152 10.1463 6.84885 10.1463 6.47885C10.1463 5.71352 9.83494 5.17019 9.2116 4.85019Z" fill="#B3B3BE"/>
  <path d="M8.00654 9.83585C7.76387 9.83585 7.56387 9.91718 7.40587 10.0812C7.26454 10.2252 7.19387 10.4112 7.19387 10.6399C7.19387 10.8599 7.26454 11.0445 7.40587 11.1939C7.55787 11.3579 7.7552 11.4392 7.99787 11.4392C8.23787 11.4392 8.43387 11.3579 8.58587 11.1939C8.7272 11.0445 8.79787 10.8599 8.79787 10.6399C8.79787 10.4165 8.7272 10.2305 8.58587 10.0812C8.4312 9.91718 8.23787 9.83585 8.00654 9.83585Z" fill="#B3B3BE"/>
  <path fill-rule="evenodd" clip-rule="evenodd" d="M1.34047 7.99992C1.34047 4.31859 4.32514 1.33325 8.00714 1.33325C11.6885 1.33325 14.6738 4.31859 14.6738 7.99992C14.6738 11.6813 11.6885 14.6666 8.00714 14.6666C4.32514 14.6666 1.34047 11.6813 1.34047 7.99992ZM2.6738 7.99992C2.6738 10.9406 5.06647 13.3333 8.00714 13.3333C10.9478 13.3333 13.3405 10.9406 13.3405 7.99992C13.3405 5.05925 10.9478 2.66659 8.00714 2.66659C5.06647 2.66659 2.6738 5.05925 2.6738 7.99992Z" fill="#B3B3BE"/>
</svg>
