<svg width="16" height="16" viewBox="0 0 16 16" fill="none" xmlns="http://www.w3.org/2000/svg">
  <path fill-rule="evenodd" clip-rule="evenodd" d="M2.4 6.91759C2.4 4.42262 4.42212 2.3999 6.91769 2.3999C9.41326 2.3999 11.4354 4.42262 11.4354 6.91759C11.4354 7.90836 11.1166 8.82451 10.5761 9.56912L13.5953 12.5883L12.5837 13.5999L9.56377 10.58C8.82014 11.1181 7.90604 11.4353 6.91769 11.4353C4.42212 11.4353 2.4 9.41316 2.4 6.91759ZM10.2307 6.91759C10.2307 5.09064 8.74404 3.60462 6.91769 3.60462C5.09134 3.60462 3.60472 5.09064 3.60472 6.91759C3.60472 8.74394 5.09134 10.2306 6.91769 10.2306C8.74404 10.2306 10.2307 8.74394 10.2307 6.91759Z" fill="#CCCCD4"/>
</svg>