<svg data-status="wait" className='rotate' width="16" height="16" viewBox="0 0 16 16" fill="none" xmlns="http://www.w3.org/2000/svg">
  <path d="M16 8C16 5.9 15.2 3.8 13.7 2.3C12.2 0.8 10.1 0 8 0C5.9 0 3.8 0.8 2.3 2.3C0.8 3.8 0 5.9 0 8C0 10.1 0.8 12.2 2.3 13.7C3.8 15.2 5.9 16 8 16C10.1 16 12.2 15.2 13.7 13.7C15.2 12.2 16 10.1 16 8Z" fill="#FFD732"/>
  <path d="M12 2H4V6L6 8L4 10V14H12V10L10 8L12 6V2ZM10 12H6V10.8L7.4 9.4H8.6L10 10.8V12ZM10 5.2L8.6 6.6H7.4L6 5.2V4H10V5.2Z" fill="#000028"/>
</svg>