<svg width="18" height="16" viewBox="0 0 18 16" fill="none" xmlns="http://www.w3.org/2000/svg">
  <g clip-path="url(#clip0_3764_1157)">
    <path d="M10.3001 0.8C10.0001 0.3 9.5001 0 9.0001 0C8.5001 0 8.0001 0.3 7.7001 0.8C5.2001 5.1 2.7001 9.5 0.200098 13.8C-0.0999023 14.3 -0.0999023 14.8 0.200098 15.3C0.500098 15.7 1.0001 16 1.5001 16C6.5001 16 11.5001 16 16.5001 16C17.0001 16 17.5001 15.7 17.8001 15.2C18.1001 14.7 18.1001 14.2 17.8001 13.7C15.3001 9.4 12.8001 5.1 10.3001 0.8Z" fill="#FFD732"/>
    <path d="M8.1001 5.60001C8.1001 7.10001 8.1001 8.60001 8.1001 10.1C8.1001 10.6 8.5001 11 9.0001 11C9.5001 11 9.9001 10.6 9.9001 10.1C9.9001 8.60001 9.9001 7.10001 9.9001 5.60001C9.9001 5.10001 9.5001 4.70001 9.0001 4.70001C8.5001 4.80001 8.1001 5.10001 8.1001 5.60001Z" fill="#000028"/>
    <path d="M9.0001 14.1C9.49715 14.1 9.9001 13.697 9.9001 13.2C9.9001 12.7029 9.49715 12.3 9.0001 12.3C8.50304 12.3 8.1001 12.7029 8.1001 13.2C8.1001 13.697 8.50304 14.1 9.0001 14.1Z" fill="#000028"/>
  </g>
  <defs>
    <clipPath id="clip0_3764_1157">
      <rect width="18" height="16" fill="white"/>
    </clipPath>
  </defs>
</svg>
